# xmcd
#
# Track frame offsets: 
#        150
#        18102
#        35640
#        52912
#        68030
#        85387
#        100795
#        116120
#        133362
#        147247
#        164527
#        180705
#        194270
#        210915
#        221880
#        236710
#        251647
#        268687
#        287517
#        300532
#
# Disc length: 4321 seconds
#
# Revision: 2
# Processed by: cddbd v1.5.2PL0 Copyright (c) Steve Scherf et al.
# Submitted via: ExactAudioCopy v0.99pb4
#
DISCID=2a10df14
DTITLE=Carpenters - By Request
DYEAR=2009
DGENRE=Country
TTITLE0=Yesterday Once More
TTITLE1=Road Ode
TTITLE2=I need to be in love
TTITLE3=Mr.Guder
TTITLE4=You
TTITLE5=One Love
TTITLE6=Can't smile without you
TTITLE7=Happy
TTITLE8=We've only just begun
TTITLE9=Superstar
TTITLE10=Rainy Days and Mondays
TTITLE11=Top of The World
TTITLE12=(They Long to be)Close to you
TTITLE13=Let me be the one
TTITLE14=I can't make music
TTITLE15=Sing
TTITLE16=Only Yesterday
TTITLE17=Ticket to ride
TTITLE18=Sometimes
TTITLE19=Look to your dreams
EXTD=
EXTT0=
EXTT1=
EXTT2=
EXTT3=
EXTT4=
EXTT5=
EXTT6=
EXTT7=
EXTT8=
EXTT9=
EXTT10=
EXTT11=
EXTT12=
EXTT13=
EXTT14=
EXTT15=
EXTT16=
EXTT17=
EXTT18=
EXTT19=
PLAYORDER=
